P3
# 3x2 PPM image
3 2
255
255 0 0   0 255 0   255 0 0
0 0 255   255 255 0   0 0 255