P3
# A small 2x2 PPM image with bright red values
2 2
255
255 50 50   255 100 100
255 150 150   255 200 200