P3
# A small 2x2 PPM image with grayscale pixels
2 2
255
50 50 50   100 100 100
150 150 150   200 200 200