P3
# A small 2x2 PPM image with max RGB values
2 2
255
255 255 255   255 0 0
0 255 0       0 0 255