P3
2 2
255
255 50 50 50 255 50 
50 50 255 255 255 50 
