P3
50 50
255
255 255 255 255 255 255 255 255 255 255 255 255 255 255 255 255 255 255 255 255 255 255 255 255 255 255 255 255 255 255 255 255 255 255 255 255 255 255 255 255 255 255 255 255 255 255 255 255 254 255 253 253 255 252 254 254 255 255 254 255 255 254 255 255 255 255 254 255 255 254 255 253 255 255 255 254 254 255 254 254 255 255 255 255 255 255 255 254 254 254 254 254 254 255 255 255 255 255 255 255 255 255 255 255 255 255 255 255 255 255 255 255 255 255 255 255 255 255 255 255 255 255 255 255 255 255 255 255 255 255 255 255 255 255 255 255 255 255 255 255 255 255 255 255 255 255 255 255 255 255 
255 255 255 255 255 255 255 255 255 255 255 255 255 255 255 255 255 255 255 255 255 255 255 255 255 255 255 255 255 255 255 255 255 255 255 255 255 255 255 255 255 255 255 255 255 255 255 255 252 254 253 254 254 255 255 255 255 255 255 255 254 254 255 254 254 255 253 253 255 254 255 255 254 254 254 255 255 255 255 255 255 255 255 255 255 255 255 255 255 255 255 255 255 254 254 254 255 255 255 255 255 255 255 255 255 255 255 255 255 255 255 255 255 255 255 255 255 255 255 255 255 255 255 255 255 255 255 255 255 255 255 255 255 255 255 255 255 255 255 255 255 255 255 255 255 255 255 255 255 255 
255 255 255 255 255 255 255 255 255 255 255 255 255 255 255 255 255 255 255 255 255 255 255 255 255 255 255 255 255 255 255 255 255 255 255 255 255 255 255 255 255 255 255 255 255 255 255 255 255 255 253 255 255 253 253 254 249 255 255 251 255 255 251 255 255 251 255 255 251 255 255 253 255 255 253 255 255 255 254 254 254 253 253 253 253 253 253 254 254 254 255 255 255 255 255 255 255 255 255 255 255 255 255 255 255 255 255 255 255 255 255 255 255 255 255 255 255 255 255 255 255 255 255 255 255 255 255 255 255 255 255 255 255 255 255 255 255 255 255 255 255 255 255 255 255 255 255 255 255 255 
255 255 255 255 255 255 255 255 255 255 255 255 255 255 255 255 255 255 255 255 255 255 255 255 255 255 255 255 255 255 255 255 255 255 255 255 255 255 255 255 255 255 255 255 255 255 255 255 250 250 252 255 255 255 255 255 253 255 255 251 255 255 251 255 255 253 254 254 252 255 255 255 255 255 253 254 254 252 255 255 253 255 255 255 255 255 255 255 255 255 253 253 253 255 255 255 255 255 255 255 255 255 255 255 255 255 255 255 255 255 255 255 255 255 255 255 255 255 255 255 255 255 255 255 255 255 255 255 255 255 255 255 255 255 255 255 255 255 255 255 255 255 255 255 255 255 255 255 255 255 
255 255 255 255 255 255 255 255 255 255 255 255 255 255 255 255 255 255 255 255 255 255 255 255 255 255 255 255 255 255 255 255 255 255 255 255 255 255 255 255 255 255 255 255 255 255 255 255 255 254 255 255 254 255 255 254 255 252 252 254 254 254 255 253 252 255 255 254 255 254 253 255 255 255 255 254 254 254 253 253 253 253 253 253 253 253 253 253 253 253 255 255 255 255 255 255 255 255 255 255 255 255 255 255 255 255 255 255 255 255 255 255 255 255 255 255 255 255 255 255 255 255 255 255 255 255 255 255 255 255 255 255 255 255 255 255 255 255 255 255 255 255 255 255 255 255 255 255 255 255 
255 255 255 255 255 255 255 255 255 255 255 255 255 255 255 255 255 255 255 255 255 255 255 255 255 255 255 255 255 255 255 255 255 255 255 255 255 255 255 255 255 255 255 255 255 255 255 255 252 253 248 250 251 246 253 253 251 254 255 253 254 255 253 255 255 253 255 255 253 255 255 253 254 254 255 255 255 255 255 255 255 254 254 254 254 254 254 255 255 255 255 255 255 253 253 253 255 255 255 255 255 255 255 255 255 255 255 255 255 255 255 255 255 255 255 255 255 255 255 255 255 255 255 255 255 255 255 255 255 255 255 255 255 255 255 255 255 255 255 255 255 255 255 255 255 255 255 255 255 255 
255 255 255 255 255 255 255 255 255 255 255 255 255 255 255 255 255 255 255 255 255 255 255 255 255 255 255 255 255 255 255 255 255 255 255 255 255 255 255 255 255 255 255 255 255 255 255 255 255 255 248 254 255 250 254 255 253 254 255 255 239 240 242 240 242 241 241 243 240 245 246 241 255 254 255 253 252 255 253 253 255 254 254 255 255 255 255 254 254 254 254 254 254 255 255 253 255 255 255 255 255 255 255 255 255 255 255 255 255 255 255 255 255 255 255 255 255 255 255 255 255 255 255 255 255 255 255 255 255 255 255 255 255 255 255 255 255 255 255 255 255 255 255 255 255 255 255 255 255 255 
255 255 255 255 255 255 255 255 255 255 255 255 255 255 255 255 255 255 255 255 255 255 255 255 255 255 255 255 255 255 255 255 255 255 255 255 255 255 255 255 255 255 255 255 255 255 255 255 232 231 237 196 196 206 154 153 167 141 142 160 111 112 132 123 122 140 120 119 135 121 119 132 128 127 133 144 143 149 183 182 187 230 230 232 255 255 255 254 254 254 251 251 251 255 255 253 255 255 255 255 255 255 255 255 255 255 255 255 255 255 255 255 255 255 255 255 255 255 255 255 255 255 255 255 255 255 255 255 255 255 255 255 255 255 255 255 255 255 255 255 255 255 255 255 255 255 255 255 255 255 
255 255 255 253 253 253 254 254 254 255 255 255 255 255 255 254 254 254 255 255 255 255 255 255 254 255 253 251 254 255 254 255 251 255 255 250 255 249 255 255 253 255 214 219 215 171 177 201 156 164 177 130 136 158 94 99 128 128 130 155 144 145 165 131 132 150 124 127 146 80 85 105 58 61 76 72 75 90 50 52 65 55 57 69 126 126 136 220 219 224 252 252 252 255 255 251 249 249 247 255 255 253 255 255 253 255 255 255 252 252 252 255 255 255 254 254 254 254 254 254 255 255 255 255 255 255 255 255 255 255 255 255 255 255 255 255 255 255 255 255 255 255 255 255 255 255 255 255 255 255 
253 253 253 254 254 254 255 255 255 255 255 255 255 255 255 254 254 254 254 254 254 254 254 254 253 255 249 255 250 254 255 252 255 248 248 248 213 224 228 136 153 169 87 101 127 102 112 137 134 141 151 126 134 147 129 138 153 137 147 156 144 154 156 158 163 167 152 156 167 73 76 91 58 64 78 78 84 98 58 64 78 54 58 70 27 29 41 38 38 46 142 143 147 252 253 255 255 255 253 249 249 247 254 254 254 255 255 255 255 255 255 255 255 255 255 255 255 254 254 254 255 255 255 255 255 255 255 255 255 255 255 255 255 255 255 255 255 255 255 255 255 255 255 255 255 255 255 255 255 255 
254 254 254 255 255 255 255 255 255 254 254 254 255 255 255 255 255 255 255 255 255 255 255 255 252 252 252 255 253 255 255 254 251 190 192 205 98 113 146 99 119 156 124 141 161 133 142 157 148 154 166 137 145 156 127 137 147 124 134 143 81 90 95 133 141 144 145 148 155 102 102 114 118 126 137 124 132 143 76 82 94 50 54 66 62 66 77 38 41 50 14 17 24 76 79 84 231 231 233 255 255 255 250 250 250 252 252 252 255 255 255 253 253 253 255 255 255 253 253 253 255 255 255 255 255 255 255 255 255 255 255 255 255 255 255 255 255 255 255 255 255 255 255 255 255 255 255 255 255 255 
255 255 255 255 255 255 253 253 253 253 253 253 255 255 255 255 255 255 255 255 255 255 255 255 255 255 251 252 254 251 172 178 192 105 114 145 127 144 152 125 139 148 115 125 134 129 136 142 118 127 134 109 114 118 90 93 98 89 89 99 78 78 88 88 92 95 85 89 90 96 97 101 130 135 141 118 123 129 82 86 95 58 61 70 60 63 72 70 73 82 45 48 57 19 22 29 52 51 56 224 223 228 255 255 255 253 253 255 255 255 255 255 255 255 255 255 255 255 255 255 255 255 255 255 255 255 255 255 255 255 255 255 255 255 255 255 255 255 255 255 255 255 255 255 255 255 255 255 255 255 
255 255 255 254 254 254 254 254 254 255 255 255 255 255 255 254 254 254 252 252 252 253 253 253 251 255 250 165 169 216 87 100 145 110 125 164 103 118 149 93 103 138 108 121 127 107 120 128 103 111 114 117 118 110 122 114 101 124 111 105 115 104 102 89 86 77 96 99 90 121 126 122 137 137 137 102 102 102 92 90 93 86 84 87 69 67 72 69 68 74 60 59 67 39 39 47 22 22 30 51 52 57 230 231 235 252 252 254 253 253 253 253 253 253 253 253 253 254 254 254 255 255 255 255 255 255 255 255 255 255 255 255 255 255 255 255 255 255 255 255 255 255 255 255 255 255 255 255 255 255 
255 255 255 253 253 253 255 255 255 255 255 255 254 254 254 254 254 254 255 255 255 255 255 255 185 198 215 72 73 166 82 95 137 94 112 132 65 80 135 72 88 140 83 106 98 55 71 105 131 130 146 171 162 155 164 148 125 163 141 127 135 118 110 138 131 121 152 151 147 163 163 171 164 159 155 114 109 105 92 84 81 98 90 88 87 81 81 73 68 72 57 55 60 38 37 43 24 24 34 12 12 20 79 80 85 254 255 255 254 254 254 255 255 255 255 255 255 255 255 255 255 255 255 255 255 255 255 255 255 255 255 255 255 255 255 255 255 255 255 255 255 255 255 255 255 255 255 255 255 255 
255 255 255 253 253 253 255 255 255 255 255 255 252 252 252 255 255 255 255 255 255 247 247 247 130 136 184 61 66 150 64 77 119 110 122 136 128 136 125 120 125 121 103 115 105 46 59 103 134 120 135 184 167 157 168 147 126 150 130 123 160 146 146 162 157 153 179 175 172 190 182 193 138 129 124 110 101 96 111 102 97 92 82 80 85 77 75 83 79 80 48 47 52 46 47 52 42 42 54 28 28 38 8 8 16 137 138 142 255 255 255 249 249 249 253 253 253 255 255 255 255 255 255 255 255 255 255 255 255 255 255 255 255 255 255 255 255 255 255 255 255 255 255 255 255 255 255 255 255 255 
255 255 255 252 252 252 255 255 255 255 255 255 254 254 254 255 255 255 249 249 249 224 224 224 115 116 164 48 53 145 36 50 125 76 74 121 174 154 145 178 145 152 137 123 120 91 98 104 149 128 123 160 140 115 171 151 124 194 176 174 230 223 231 215 214 210 209 206 191 176 166 156 135 124 120 130 119 115 120 109 105 90 81 76 66 58 56 57 55 56 68 69 73 88 91 98 50 52 65 27 29 41 14 14 22 34 35 39 223 223 223 254 254 254 255 255 255 254 254 254 255 255 255 255 255 255 255 255 255 255 255 255 255 255 255 255 255 255 255 255 255 255 255 255 255 255 255 255 255 255 
255 254 255 254 255 255 254 255 255 255 255 251 254 254 254 249 252 255 242 239 248 198 185 192 195 182 191 167 172 166 84 91 137 146 124 145 224 194 166 194 176 152 161 140 113 170 149 132 186 153 146 173 146 135 175 162 146 215 207 205 250 247 254 249 244 250 205 200 197 148 140 129 132 121 117 125 117 106 126 120 106 93 90 81 63 63 65 70 70 80 103 106 113 89 93 96 41 39 42 30 28 42 24 20 34 1 7 23 126 120 130 255 252 249 245 254 255 255 253 255 254 251 255 255 255 251 255 251 250 250 255 255 255 253 255 252 255 255 255 252 253 255 253 255 255 255 255 254 255 255 
255 254 255 253 254 255 253 254 255 255 255 251 254 254 254 254 255 255 218 213 219 205 189 190 223 210 204 229 229 201 184 178 166 198 176 152 224 193 165 208 186 172 145 129 139 173 153 118 162 139 125 176 155 136 182 167 138 203 190 181 229 220 215 201 195 179 164 160 149 124 121 112 129 120 115 115 108 102 123 118 114 128 127 123 131 131 131 114 115 117 104 108 111 49 52 57 29 34 30 23 23 31 28 26 31 10 14 23 46 41 45 242 237 231 247 255 255 255 254 255 254 255 251 249 254 250 254 255 251 250 251 253 254 255 255 255 253 247 254 255 250 254 255 247 255 254 253 251 251 251 
255 254 253 251 252 255 252 255 255 255 255 253 254 253 251 253 252 255 206 197 200 210 191 187 218 200 176 223 218 188 135 116 144 157 134 150 219 186 155 212 189 157 84 77 119 126 108 106 149 135 124 172 157 134 180 162 150 168 151 131 178 166 144 170 162 149 139 138 117 171 173 168 172 167 163 137 134 129 141 140 136 155 155 153 132 134 131 93 97 96 96 100 99 66 70 71 30 39 36 30 33 40 19 19 21 19 22 27 11 9 14 183 179 178 249 255 255 251 250 255 255 255 253 255 252 252 246 250 251 255 252 255 250 255 254 249 249 251 251 255 255 255 255 255 255 254 248 255 254 251 
255 254 253 251 252 255 254 255 255 255 255 253 254 252 253 237 237 239 213 205 203 214 194 187 223 205 193 225 210 181 133 117 144 139 125 148 213 187 164 225 213 161 163 168 145 120 97 113 98 91 85 109 99 100 110 95 114 162 150 136 190 182 159 203 195 193 181 181 169 175 178 171 176 176 168 166 167 161 173 175 170 143 145 142 116 120 119 111 115 114 89 95 93 73 78 74 40 45 51 31 33 46 28 27 35 24 24 32 15 13 26 118 117 125 247 251 254 253 252 255 255 250 255 255 255 251 250 250 238 226 185 157 198 153 111 209 172 130 219 186 133 192 151 99 198 189 180 255 251 247 
255 254 253 254 255 255 254 255 255 254 253 251 255 254 255 224 225 229 210 206 207 218 203 198 222 206 181 239 211 187 131 119 139 124 113 127 221 203 167 220 211 180 210 207 154 226 203 162 135 129 131 51 39 75 95 90 113 97 95 106 166 167 161 167 169 155 152 150 153 122 121 103 130 133 116 140 143 136 104 105 109 72 76 79 114 119 113 132 140 129 108 113 109 54 58 61 30 28 39 29 25 40 32 29 40 25 22 29 5 4 18 84 83 89 255 254 243 255 253 243 245 253 238 238 219 177 174 116 68 37 14 6 58 35 19 189 137 64 172 108 44 166 98 63 236 227 218 255 254 250 
255 254 252 254 255 255 254 255 255 255 252 251 255 255 255 218 223 229 185 188 195 209 203 205 226 193 186 211 187 153 144 149 155 117 108 155 226 202 166 227 204 163 239 215 187 199 180 173 72 63 84 51 44 77 101 102 123 73 77 102 130 134 143 161 166 146 141 139 127 147 142 123 130 133 116 56 56 58 18 17 35 52 54 67 84 89 82 64 71 55 90 95 89 51 53 65 27 22 28 32 26 38 33 32 38 27 25 26 12 12 22 68 63 59 225 196 162 204 172 134 145 89 66 142 81 37 108 63 44 99 60 29 191 130 67 205 152 56 186 115 35 235 201 192 255 254 248 254 250 247 
255 255 253 254 255 255 254 254 254 255 253 252 255 255 255 209 217 228 161 171 183 174 178 189 205 179 188 203 193 191 200 210 199 147 148 150 184 166 142 173 146 137 106 89 99 47 40 81 30 22 59 40 38 60 60 59 90 108 110 135 174 176 188 180 181 176 166 164 143 141 132 125 62 60 65 28 26 40 27 25 47 41 40 58 78 81 86 65 70 64 58 63 59 61 65 66 41 36 42 28 25 36 37 41 50 26 24 25 24 22 33 59 42 34 149 96 44 146 85 28 101 51 28 133 92 46 182 124 42 210 154 69 227 153 68 203 121 37 181 152 112 252 255 248 255 253 252 255 255 255 
254 255 253 252 255 255 254 254 254 255 254 251 253 252 255 197 209 223 149 165 181 136 148 164 159 170 172 216 224 226 212 199 209 193 188 192 158 161 180 50 43 94 39 43 81 33 32 63 34 29 69 42 38 71 46 42 75 124 122 146 134 132 146 127 122 128 184 179 175 78 70 67 18 11 44 37 32 55 24 21 38 37 36 52 86 84 105 79 81 94 53 55 54 55 59 44 37 34 45 24 23 41 13 20 36 17 16 24 16 12 29 53 28 24 165 92 37 194 113 50 213 154 60 229 153 65 217 150 71 212 133 58 204 134 65 162 95 53 176 146 120 247 255 251 253 253 255 253 254 255 
255 255 255 255 254 255 253 255 250 254 252 255 255 255 253 174 193 208 161 183 196 195 188 206 132 150 152 177 178 182 202 210 197 194 206 196 231 212 198 170 143 132 38 30 81 38 31 62 37 28 75 39 34 64 39 36 65 100 98 120 121 119 143 131 129 140 151 152 134 52 49 44 39 35 58 51 47 74 36 32 55 64 63 71 107 106 112 86 84 97 48 45 62 33 33 45 38 26 30 72 55 45 68 42 19 94 55 26 140 92 46 181 124 53 212 150 63 225 159 72 218 151 70 220 147 55 185 122 53 196 121 56 180 116 54 111 61 36 174 128 113 246 255 254 253 253 253 254 254 254 
255 253 250 253 252 248 252 255 255 255 254 255 255 251 252 203 209 223 155 164 193 218 218 226 169 180 184 157 158 153 201 206 199 205 183 185 202 166 150 85 64 105 26 16 77 31 37 71 35 30 62 30 29 47 40 41 69 113 119 135 124 131 139 143 145 166 70 73 82 48 50 49 44 49 55 64 62 84 67 63 88 70 73 90 98 109 127 68 74 100 25 20 27 74 59 36 190 115 47 223 155 72 226 167 73 226 171 78 225 171 81 221 164 77 221 156 72 212 144 63 200 131 54 171 106 50 163 100 59 170 107 64 152 93 53 147 93 31 187 151 103 255 254 250 254 254 254 254 254 254 
255 254 255 248 255 254 249 254 255 252 250 253 255 252 255 224 222 235 121 121 171 156 172 185 173 189 204 126 135 140 181 164 174 202 179 173 123 117 131 22 25 78 28 30 81 32 24 65 33 35 73 54 56 81 89 89 117 131 131 143 110 109 115 108 106 130 114 114 140 118 120 135 71 70 84 68 72 109 43 53 89 45 51 63 87 74 68 102 60 44 138 76 27 226 157 66 223 193 97 224 186 101 221 172 93 220 162 78 220 154 67 216 145 65 208 133 65 192 117 59 154 96 48 130 78 39 139 77 52 151 84 39 177 108 53 197 136 53 199 165 119 252 251 249 254 254 254 254 254 254 
251 250 255 249 255 255 255 255 253 255 249 250 255 254 255 248 241 248 148 139 184 99 113 142 126 140 149 146 157 159 201 195 197 117 119 142 40 46 108 34 31 76 43 41 81 111 108 129 89 81 122 70 63 105 74 70 103 111 112 133 123 125 148 136 139 154 191 199 201 168 175 181 111 101 110 121 90 95 140 86 60 193 129 55 226 164 63 222 169 75 228 186 102 225 189 103 217 165 81 218 154 82 219 142 70 219 135 49 212 128 40 203 124 55 171 103 54 144 84 47 127 75 36 140 87 37 159 107 67 210 142 57 208 128 57 170 110 40 216 179 153 252 255 255 254 254 254 254 254 254 
255 253 250 255 254 255 255 254 243 255 253 255 252 254 251 255 254 251 209 191 207 138 123 162 92 101 130 144 141 152 181 192 188 67 66 134 48 44 103 52 51 91 57 48 103 131 136 158 114 107 125 48 41 82 63 62 102 72 75 108 82 82 116 99 91 115 113 96 104 101 77 75 185 116 51 193 129 57 224 171 91 238 197 117 220 186 112 216 177 108 219 167 94 211 147 73 215 144 64 202 132 60 192 125 57 186 122 61 167 104 61 151 90 61 135 77 40 145 93 36 197 132 68 204 143 78 200 149 83 207 148 46 196 119 63 173 117 60 231 201 173 255 254 255 254 254 254 255 255 255 
255 253 249 252 254 255 249 255 253 251 255 255 247 255 253 249 251 250 200 189 185 154 128 165 113 108 140 124 123 139 114 123 140 71 73 130 47 48 105 48 54 102 54 53 113 44 28 75 106 114 135 181 186 179 129 122 103 100 75 70 134 96 59 202 156 70 207 150 60 216 150 64 226 182 107 223 183 96 225 183 97 213 160 92 199 134 80 193 119 70 180 103 59 176 98 62 169 97 59 154 89 51 143 85 45 133 82 39 123 74 34 129 78 33 157 102 38 208 151 70 212 143 68 196 141 58 218 152 68 189 123 49 184 111 60 180 127 59 236 230 206 255 255 255 254 254 254 255 255 255 
254 255 253 249 255 255 251 255 255 245 238 219 214 193 172 97 82 75 46 40 26 171 152 172 154 121 164 117 120 151 116 116 144 125 123 136 104 91 121 143 115 114 161 140 111 179 156 106 209 162 92 221 169 109 222 165 94 230 171 91 228 174 78 225 174 85 218 170 104 219 179 94 219 169 84 217 154 77 205 127 61 195 116 57 184 115 56 168 109 51 153 95 47 142 80 43 122 77 36 116 68 32 114 63 34 116 61 31 156 98 52 195 136 68 216 155 74 223 161 76 197 134 67 220 166 76 218 146 62 181 108 55 189 119 59 193 149 86 246 253 245 251 255 255 254 254 254 255 255 255 
255 255 250 252 252 244 255 248 255 200 159 103 165 95 43 110 60 35 48 33 12 64 50 49 86 72 85 90 76 75 178 151 106 200 154 104 201 165 103 222 168 104 218 140 68 213 159 69 218 162 79 217 162 98 217 170 90 220 177 98 225 179 102 216 164 81 206 143 74 206 137 70 206 133 64 199 128 64 198 129 72 180 114 64 144 82 45 130 70 42 133 80 46 128 80 32 133 69 34 140 78 27 175 114 49 194 132 59 226 164 81 225 166 72 219 160 70 203 144 68 207 140 70 207 142 60 196 133 56 194 129 71 185 124 69 228 197 166 252 254 249 254 254 254 254 254 254 255 255 255 
251 255 255 253 254 255 246 241 245 180 131 62 190 138 81 193 137 76 202 144 81 188 144 97 200 153 85 206 153 85 209 145 81 183 115 52 199 129 67 195 128 60 210 144 70 214 149 69 217 155 72 217 154 75 227 164 85 222 157 73 215 150 66 206 139 61 214 146 75 206 136 66 180 112 73 158 93 51 143 84 40 143 90 50 116 63 29 116 60 27 143 79 41 172 101 55 201 121 58 210 138 66 214 149 69 222 161 80 209 148 68 211 149 76 209 146 77 202 141 74 210 142 69 195 126 49 189 124 68 192 132 72 189 141 93 255 247 242 241 255 255 255 255 244 255 255 255 255 255 255 
255 255 250 255 254 253 255 246 239 202 158 87 202 137 83 203 138 80 217 156 75 201 152 75 215 166 97 216 163 87 211 150 69 217 152 68 218 153 71 219 153 77 203 139 68 198 133 65 194 135 67 208 146 69 209 142 64 193 123 54 206 135 69 208 144 73 194 134 72 162 106 59 154 95 51 153 92 47 151 88 44 160 97 53 155 94 47 149 90 30 184 125 47 217 156 63 218 153 69 213 153 67 216 160 75 219 160 80 208 146 69 221 155 81 190 122 47 207 141 63 208 140 67 181 119 72 193 124 67 178 124 62 220 208 182 254 255 255 255 253 255 251 255 250 254 254 254 254 254 254 
255 255 253 255 255 247 255 252 253 227 198 142 218 154 64 220 154 76 223 159 85 217 165 82 214 165 89 213 160 80 215 155 69 216 152 64 210 145 63 207 143 71 203 138 74 200 134 74 193 129 67 200 134 73 211 141 79 206 136 74 195 129 71 162 100 53 134 79 40 118 68 33 141 88 38 166 106 54 170 104 52 180 110 59 173 103 52 184 120 59 213 154 78 223 166 79 219 162 73 216 160 73 214 159 76 206 149 70 203 141 66 207 141 67 200 134 60 217 151 77 181 121 69 181 111 60 185 121 59 224 194 160 252 255 251 248 254 252 255 252 255 253 251 254 255 255 255 255 255 255 
254 254 255 250 255 249 255 253 255 241 232 201 220 168 66 220 161 83 208 146 89 220 167 91 227 176 93 217 162 80 214 152 75 208 144 73 212 147 83 202 138 76 202 138 74 199 136 69 191 121 59 191 122 67 200 135 81 185 124 67 161 101 49 145 85 48 150 91 59 155 97 59 166 104 65 166 102 56 166 97 42 177 107 47 219 151 88 204 140 76 204 143 76 205 145 73 211 143 72 206 142 70 206 144 69 212 150 73 213 151 76 200 137 68 204 142 81 189 130 74 161 106 65 196 122 61 193 142 89 250 236 223 250 245 239 247 248 240 252 255 255 255 253 253 255 255 255 255 255 255 
252 253 255 248 254 252 252 251 255 246 244 231 203 158 91 201 141 89 196 136 74 205 150 70 221 169 83 213 156 75 196 134 61 202 137 73 206 142 81 208 147 84 204 144 72 217 158 78 206 140 79 191 128 59 187 126 63 172 110 63 154 92 51 150 88 41 158 96 45 166 102 54 166 97 42 188 120 59 211 144 73 206 145 65 223 167 84 228 173 91 225 168 91 210 151 75 212 143 74 210 143 73 212 148 77 212 145 75 202 135 65 204 139 73 192 130 73 181 121 71 189 128 71 182 129 79 189 145 116 198 172 147 203 190 174 220 210 208 238 234 225 250 251 245 253 253 253 255 255 255 
255 254 255 255 255 248 255 252 254 255 254 251 205 173 116 201 142 86 213 152 89 208 144 72 211 154 73 225 167 85 217 156 76 217 155 78 212 153 77 217 161 84 209 152 71 217 161 78 213 161 86 212 156 81 204 143 76 185 118 63 175 105 56 171 104 52 173 112 49 185 128 57 211 145 67 226 163 84 217 156 76 213 158 76 211 160 77 228 178 93 212 158 72 226 165 82 214 156 74 206 147 71 208 145 78 205 140 76 206 136 74 196 128 65 185 121 60 198 137 80 183 123 69 139 102 57 135 103 78 144 110 83 160 139 122 180 163 155 202 194 173 223 224 219 249 249 249 253 253 253 
255 251 255 253 255 244 255 250 253 255 250 255 224 212 160 211 162 93 217 160 93 211 147 83 208 148 75 223 162 82 222 161 78 212 152 66 213 157 74 219 164 84 220 164 87 219 162 85 217 168 89 212 160 85 221 163 89 222 160 83 211 146 78 197 132 74 196 136 73 223 168 86 209 152 83 205 148 79 210 153 84 212 160 85 214 166 84 216 166 79 215 160 70 215 156 66 211 152 74 210 150 80 192 130 69 180 114 56 195 129 69 200 136 75 195 136 78 175 120 66 142 96 63 126 91 49 121 96 65 149 123 110 167 144 130 193 180 161 215 212 197 238 229 230 250 250 250 253 253 253 
254 255 255 244 253 248 255 255 248 255 250 254 250 254 239 230 189 135 207 163 76 216 160 83 209 149 77 214 152 77 220 159 79 220 161 81 215 159 82 208 154 80 208 154 82 212 155 84 214 157 88 211 156 74 216 165 74 207 157 72 201 149 74 216 159 88 213 153 83 206 143 76 212 170 86 224 177 95 227 176 93 223 171 85 219 167 81 215 163 80 217 159 85 209 148 81 208 139 80 189 122 67 181 114 61 202 137 81 201 139 78 189 133 74 158 110 61 135 92 50 118 82 56 116 82 57 133 108 77 149 132 114 177 165 153 199 192 176 224 215 216 254 242 242 254 254 254 255 255 255 
254 255 253 251 253 248 255 255 253 247 246 242 253 243 234 249 225 197 214 177 122 210 164 87 222 163 103 205 145 82 207 144 77 217 153 82 220 156 82 215 153 80 211 153 80 217 160 89 213 157 80 222 162 89 207 144 75 192 132 62 197 145 69 219 172 90 219 174 91 215 168 86 224 167 88 222 165 86 222 165 88 218 160 86 209 151 78 206 147 77 207 150 81 206 149 80 208 138 69 205 136 69 200 134 73 184 123 68 158 104 57 137 92 53 121 85 53 111 77 50 115 79 43 130 97 64 148 122 95 168 150 128 192 179 163 215 206 197 236 231 225 254 249 245 255 255 255 255 255 255 
254 253 255 254 254 254 255 255 250 244 241 232 231 222 207 225 204 177 216 182 137 216 171 114 209 157 81 207 154 78 213 155 81 213 153 80 213 151 78 213 151 78 207 147 74 202 144 70 201 146 81 205 145 83 209 143 83 211 146 82 228 165 96 226 169 92 222 163 85 217 155 78 195 143 70 198 144 74 201 142 76 202 138 76 205 137 74 212 143 78 217 147 78 215 145 75 189 123 73 170 109 64 149 97 57 133 88 55 116 79 50 110 74 48 117 81 55 128 92 66 142 115 88 165 141 117 191 173 151 214 201 185 233 225 214 246 241 235 255 251 248 255 255 253 255 255 255 255 255 255 
255 253 255 255 253 255 255 253 248 248 245 236 228 220 207 213 196 176 208 179 149 191 153 116 183 131 91 181 129 82 194 137 82 204 144 81 208 147 80 211 148 79 209 145 81 211 147 85 209 152 81 210 151 83 211 148 79 208 144 73 220 158 83 217 158 80 210 148 73 199 137 64 208 131 77 211 137 76 211 143 72 209 146 69 202 144 70 181 127 65 153 101 53 131 81 44 112 75 48 106 69 40 104 68 36 112 76 44 124 88 54 139 105 70 164 130 95 189 156 121 204 191 175 223 211 197 241 233 222 250 246 237 255 254 249 255 255 253 255 255 255 254 254 255 255 255 255 255 255 255 
255 254 255 255 255 253 255 251 250 255 253 254 245 240 237 230 220 211 217 199 179 190 164 137 172 133 94 148 104 67 131 82 49 130 76 42 134 75 41 145 83 44 160 99 55 177 116 69 206 135 71 211 140 78 202 130 71 194 124 64 192 124 63 194 129 71 178 115 62 166 102 56 157 106 53 142 91 48 119 68 39 103 54 37 95 48 38 84 44 32 82 47 28 88 56 33 103 64 31 121 83 47 144 105 72 166 131 99 188 159 129 206 186 161 224 211 192 241 234 216 249 244 238 255 252 247 255 255 251 255 255 253 255 255 255 254 255 255 253 254 255 254 254 255 255 255 255 255 255 255 
254 254 252 255 255 253 255 255 255 255 255 255 255 255 255 254 251 246 247 238 229 237 223 210 226 205 188 202 180 157 177 150 121 148 118 84 125 91 54 110 71 38 95 54 26 86 44 20 98 51 21 96 51 22 90 44 18 90 46 19 85 43 18 84 43 21 76 37 20 75 37 26 73 36 20 79 42 24 89 51 32 105 64 42 120 80 54 134 93 65 153 114 83 177 138 105 197 161 135 217 186 165 235 212 196 245 231 222 254 246 243 255 252 252 255 253 254 255 254 255 255 255 253 255 255 255 254 254 254 254 254 255 255 255 255 255 255 255 255 255 255 255 255 255 255 255 255 255 255 255 
253 254 255 254 255 255 255 255 253 252 254 249 254 255 250 254 255 251 255 255 253 255 253 255 255 255 250 254 253 248 255 253 247 254 245 238 247 237 227 244 232 216 234 222 200 225 213 187 219 203 180 212 197 176 210 195 174 208 192 169 214 194 170 213 191 167 219 197 176 223 202 183 228 216 194 234 222 200 241 229 205 245 235 210 247 239 216 250 243 227 255 248 238 255 254 248 255 255 251 255 255 251 255 255 253 254 254 254 254 254 255 255 255 255 255 253 255 255 254 255 255 255 255 255 255 255 254 254 254 255 255 255 255 255 255 255 255 255 254 252 253 255 255 253 255 255 255 255 255 255 
254 255 255 255 255 255 255 255 255 255 255 253 254 255 251 253 255 252 252 252 254 254 252 255 251 255 255 248 254 252 252 255 253 254 255 251 255 255 253 255 255 255 255 254 255 255 254 255 254 255 253 251 255 255 249 255 255 249 253 252 254 255 250 255 254 249 255 255 248 254 255 249 254 253 255 253 253 255 253 252 250 254 253 249 255 255 250 255 255 250 255 255 251 254 254 252 251 255 254 251 253 248 253 252 247 255 255 248 255 255 250 252 255 255 249 255 255 246 255 255 254 254 252 254 254 254 254 254 254 254 254 255 255 255 255 255 255 255 255 255 255 255 255 255 255 255 255 255 255 255 
253 255 247 255 255 253 253 251 255 255 253 255 255 254 255 252 253 255 255 255 253 255 255 251 255 255 255 253 253 253 255 254 255 254 252 253 253 252 250 255 255 253 254 255 250 252 253 248 255 253 247 254 253 249 250 251 253 253 254 255 251 251 253 255 255 255 250 254 255 246 255 254 254 255 253 251 251 249 253 253 253 255 255 255 253 252 255 251 252 254 253 254 255 254 255 255 255 254 255 255 254 255 255 254 255 254 255 255 252 252 254 255 253 254 255 254 251 255 253 250 255 255 253 255 255 255 255 255 255 253 253 255 254 254 255 254 254 255 253 255 254 254 255 255 255 255 255 255 255 255 
255 255 255 255 255 255 255 255 255 255 255 255 255 255 255 255 255 255 255 255 255 255 255 255 255 255 255 255 255 255 255 255 255 255 255 255 255 255 255 255 255 255 255 255 255 255 255 255 255 255 255 255 255 255 255 255 255 255 255 255 255 255 255 255 255 255 255 255 255 255 255 255 255 255 255 255 255 255 255 255 255 255 255 255 255 255 255 255 255 255 255 255 255 255 255 255 255 255 255 255 255 255 255 255 255 255 255 255 255 255 255 255 255 255 255 255 255 255 255 255 255 255 255 255 255 255 255 255 255 255 255 255 255 255 255 255 255 255 255 255 255 255 255 255 255 255 255 255 255 255 
255 255 255 255 255 255 255 255 255 255 255 255 255 255 255 255 255 255 255 255 255 255 255 255 255 255 255 255 255 255 255 255 255 255 255 255 255 255 255 255 255 255 255 255 255 255 255 255 255 255 255 255 255 255 255 255 255 255 255 255 255 255 255 255 255 255 255 255 255 255 255 255 255 255 255 255 255 255 255 255 255 255 255 255 255 255 255 255 255 255 255 255 255 255 255 255 255 255 255 255 255 255 255 255 255 255 255 255 255 255 255 255 255 255 255 255 255 255 255 255 255 255 255 255 255 255 255 255 255 255 255 255 255 255 255 255 255 255 255 255 255 255 255 255 255 255 255 255 255 255 
