P3
2 2
255
100 88 69 196 174 136 
48 42 33 255 255 205 
