P3
3 3
255
255 0 0 0 255 0 0 0 255 
0 255 255 143 159 111 255 0 255 
255 255 255 128 128 128 0 0 0 
