P3
# 4x4 PPM image
4 4
255
255 0 0   0 255 0   255 0 0   0 255 0
0 0 255   255 255 0   0 0 255   255 255 0
255 0 0   0 255 0   255 0 0   0 255 0
0 0 255   255 255 0   0 0 255   255 255 0